<svg height="512" viewBox="0 0 192 192" width="512" xmlns="http://www.w3.org/2000/svg" xmlns:xlink="http://www.w3.org/1999/xlink"><linearGradient id="New_Gradient_Swatch_2" gradientUnits="userSpaceOnUse" x1="90.343" x2="101.657" y1="61.657" y2="50.343"><stop offset="0" stop-color="#34cdfa"/><stop offset="1" stop-color="#e8d9f1"/></linearGradient><linearGradient id="New_Gradient_Swatch_2-2" x1="87.515" x2="104.485" xlink:href="#New_Gradient_Swatch_2" y1="39.515" y2="22.544"/><linearGradient id="New_Gradient_Swatch_2-3" x1="79.029" x2="112.971" xlink:href="#New_Gradient_Swatch_2" y1="31.03" y2="-2.912"/><rect fill="#ccf2fe" height="112" rx="8" width="160" x="16" y="80"/><path d="m168 80h-144a8 8 0 0 0 -8 8v14.3l69.369 61.661a16 16 0 0 0 21.26 0l69.371-61.661v-14.3a8 8 0 0 0 -8-8z" fill="#99e6fd"/><path d="m175.478 85.157a8 8 0 0 0 -7.478-5.157h-144a8 8 0 0 0 -5.314 13.979l72 64a8 8 0 0 0 10.628 0l72-64a8 8 0 0 0 2.164-8.822z" fill="#e6f9fe"/><circle cx="96" cy="56" fill="url(#New_Gradient_Swatch_2)" r="8"/><path d="m79.029 31.03 11.315 11.313a8 8 0 0 1 11.312 0l11.315-11.313a24 24 0 0 0 -33.942 0z" fill="url(#New_Gradient_Swatch_2-2)"/><path d="m96 0a47.684 47.684 0 0 0 -33.941 14.059l11.314 11.314a32 32 0 0 1 45.254 0l11.314-11.314a47.684 47.684 0 0 0 -33.941-14.059z" fill="url(#New_Gradient_Swatch_2-3)"/></svg>