<svg xmlns="http://www.w3.org/2000/svg" width="368.739" height="55.6686" xmlns:xlink="http://www.w3.org/1999/xlink" version="1.1" xmlns:svgjs="http://svgjs.com/svgjs"><defs id="SvgjsDefs2617" /><g id="SvgjsG2618" fill="#ffffff" transform="translate(-3.33 -188.841)" name="main_text" xmlns:name="main_text" rel="mainfill"><path style="fill: #ffffff;" fill="#ffffff" d="M 12.66 240 L 12.66 208.54 L 25.13 226.47 L 32.92 226.47 L 45.12 208.54 L 45.12 240 L 54.45 240 L 54.45 193.35 L 45.46 193.35 L 28.93 215.94 L 12.66 193.35 L 3.33 193.35 L 3.33 240 Z M 69.78 216.74 L 69.78 212.07 L 79.05 202.68 L 93.04 202.68 L 93.04 216.74 Z M 69.78 240 L 69.78 226.07 L 93.04 226.07 L 93.04 240 L 102.31 240 L 102.31 193.35 L 74.38 193.35 L 60.45 207.41 L 60.45 240 Z M 118.3 240 L 118.3 193.35 L 108.97 193.35 L 108.97 240 Z M 124.97 193.35 L 124.97 240 L 164.56 240 L 164.56 230.67 L 134.3 230.67 L 134.3 193.35 Z M 208.81 240 L 208.81 230.67 L 178.55 230.67 L 178.55 221.4 L 206.48 221.4 L 206.48 212.07 L 178.55 212.07 L 178.55 202.68 L 208.81 202.68 L 208.81 193.35 L 169.22 193.35 L 169.22 240 Z M 224.14 216.74 L 224.14 202.68 L 247.4 202.68 L 247.4 216.74 Z M 256.67 240 L 256.67 230.67 L 252.07 226.07 L 256.67 221.4 L 256.67 198.08 L 252.07 193.35 L 214.81 193.35 L 214.81 240 L 224.14 240 L 224.14 226.07 L 238.07 226.07 L 242.74 230.67 L 247.4 235.4 L 247.4 240 Z" /></g><g id="SvgjsG2619" fill="#ffffff" transform="translate(249.383 -33.8273) scale(1.3)" name="symbol" xmlns:name="symbol_mainfill" rel="mainfill"><path style="fill: #ffffff;" fill="#ffffff" d="M 91.812 47.565 l -7.271 -6.009 v 4.088 H 60.125 l 13.082 -12.421 v 7.743 h 4.904 v -8.399 c 0 -3.609 -2.937 -6.546 -6.549 -6.546 H 21.128 c -3.609 0 -6.546 2.937 -6.546 6.546 v 29.729 c 0 3.61 2.937 6.547 6.546 6.547 h 50.435 c 3.612 0 6.549 -2.937 6.549 -6.547 v -7.872 h -4.904 v 7.872 c 0 0.906 -0.737 1.643 -1.645 1.643 H 21.128 c -0.904 0 -1.643 -0.736 -1.643 -1.643 V 33.324 l 25.447 24.08 c 0.395 0.374 0.901 0.56 1.404 0.56 c 0.508 0 1.014 -0.188 1.408 -0.562 l 8.077 -7.669 h 28.72 v 3.842 L 91.812 47.565 Z M 46.335 53.104 L 22.899 30.925 H 69.69 L 46.335 53.104 Z" /></g></svg>
