<?xml version="1.0" encoding="iso-8859-1"?>
<!-- Generator: Adobe Illustrator 19.0.0, SVG Export Plug-In . SVG Version: 6.00 Build 0)  -->
<svg version="1.1" id="Capa_1" xmlns="http://www.w3.org/2000/svg" xmlns:xlink="http://www.w3.org/1999/xlink" x="0px" y="0px"
	 viewBox="0 0 512 512" style="enable-background:new 0 0 512 512;" xml:space="preserve">
<path style="fill:#C7C7C7;" d="M476.69,0c-19.5,0-35.31,15.81-35.31,35.31v17.655H512V35.31C512,15.81,496.19,0,476.69,0z"/>
<path style="fill:#E0E0E0;" d="M441.379,0H105.931c-19.5,0-35.31,15.81-35.31,35.31V512h335.448c19.5,0,35.31-15.81,35.31-35.31
	V35.31c0-19.5,15.81-35.31,35.31-35.31H441.379z"/>
<path style="fill:#D9D9D9;" d="M441.379,0h-41.313C349.714,183.349,232.068,340.957,70.621,441.379V512h335.448
	c19.5,0,35.31-15.81,35.31-35.31V35.31c0-19.5,15.81-35.31,35.31-35.31H441.379z"/>
<g>
	<rect x="194.207" y="79.448" style="fill:#C7C7C7;" width="114.759" height="17.655"/>
	<rect x="114.759" y="132.414" style="fill:#C7C7C7;" width="282.483" height="17.655"/>
	<rect x="114.759" y="185.379" style="fill:#C7C7C7;" width="194.207" height="17.655"/>
	<rect x="344.276" y="185.379" style="fill:#C7C7C7;" width="52.966" height="17.655"/>
	<rect x="114.759" y="238.345" style="fill:#C7C7C7;" width="282.483" height="17.655"/>
	<rect x="114.759" y="291.31" style="fill:#C7C7C7;" width="105.931" height="17.655"/>
	<rect x="114.759" y="335.448" style="fill:#C7C7C7;" width="44.138" height="17.655"/>
	<rect x="194.207" y="335.448" style="fill:#C7C7C7;" width="26.483" height="17.655"/>
</g>
<path style="fill:#EBEBEB;" d="M370.759,476.69v-17.655H0v17.655C0,496.19,15.81,512,35.31,512h370.759
	C386.569,512,370.759,496.19,370.759,476.69z"/>
<polygon style="fill:#F46B27;" points="317.793,361.931 317.793,423.724 344.276,406.069 370.759,423.724 370.759,361.931 "/>
<path style="fill:#E65F1C;" d="M317.793,370.759v17.655c15.616,12.014,37.35,12.014,52.966,0v-17.655H317.793z"/>
<circle style="fill:#FDB62F;" cx="344.276" cy="335.448" r="44.138"/>
<circle style="fill:#FFA83D;" cx="344.276" cy="335.448" r="26.483"/>
<g>
</g>
<g>
</g>
<g>
</g>
<g>
</g>
<g>
</g>
<g>
</g>
<g>
</g>
<g>
</g>
<g>
</g>
<g>
</g>
<g>
</g>
<g>
</g>
<g>
</g>
<g>
</g>
<g>
</g>
</svg>
