<svg id="Layer_1" enable-background="new 0 0 512 512" height="512" viewBox="0 0 512 512" width="512" xmlns="http://www.w3.org/2000/svg"><g><g><path d="m416 138.639c-15.023 0-30.047-5.718-41.484-17.155l11.314-11.313c16.635 16.635 43.705 16.635 60.34 0 16.636-16.636 16.636-43.704 0-60.34l11.314-11.313c22.873 22.874 22.873 60.093 0 82.967-11.437 11.435-26.461 17.154-41.484 17.154z" fill="#ff4646"/></g><g><path d="m448 80c-10.245-10.245-24.139-16-38.627-16h-156.118c-8.487 0-16.626 3.371-22.627 9.373l-203.314 203.313c-7.244 7.244-11.314 17.069-11.314 27.314 0 10.245 4.07 20.07 11.314 27.314l137.373 137.373c7.243 7.243 17.068 11.313 27.313 11.313h32c10.245 0 20.07-4.07 27.314-11.314l203.314-203.314c6.001-6.001 9.373-14.141 9.373-22.627v-124.118c-.001-14.488-5.756-28.382-16.001-38.627z" fill="#32283c"/></g><g><path d="m230.627 73.373-203.313 203.313c-7.244 7.244-11.314 17.069-11.314 27.314 0 10.245 4.07 20.07 11.314 27.314l137.373 137.373c7.243 7.243 17.068 11.313 27.313 11.313 10.245 0 20.07-4.07 27.314-11.314l203.314-203.314c6.001-6.001 9.373-14.141 9.373-22.627v-124.118c0-14.488-5.755-28.383-16-38.627-10.245-10.245-24.139-16-38.627-16h-124.119c-8.487 0-16.626 3.371-22.628 9.373z" fill="#463c4b"/></g><g><circle cx="380" cy="116" fill="#32283c" r="28"/></g><g><path d="m380.173 123.827c-2.048 0-4.095-.781-5.657-2.343-22.873-22.874-22.873-60.093 0-82.967 22.875-22.874 60.094-22.874 82.969 0 3.124 3.124 3.124 8.189 0 11.313-3.125 3.124-8.189 3.125-11.314 0-16.635-16.635-43.705-16.635-60.34 0-16.636 16.636-16.636 43.704 0 60.34 3.124 3.124 3.124 8.189 0 11.313-1.563 1.562-3.611 2.344-5.658 2.344z" fill="#ff4646"/></g><g><path d="m59.314 292.686 185.373-185.373c6.248-6.248 16.379-6.248 22.627 0l121.373 121.373c6.248 6.248 6.248 16.379 0 22.627l-185.373 185.373c-6.248 6.248-16.379 6.248-22.627 0l-121.373-121.372c-6.249-6.249-6.249-16.379 0-22.628z" fill="#e6e6eb"/></g><path d="m295.536 224.91-.909-.91 7.353-7.353c6.249-6.249 6.249-16.379 0-22.627-6.247-6.248-16.378-6.248-22.627 0l-7.353 7.353-.91-.91c-17.145-17.143-45.039-17.143-62.182 0-11.853 11.852-15.923 29.092-10.622 44.996l21.068 63.201c1.442 4.329.335 9.023-2.892 12.249-4.667 4.667-12.261 4.667-16.928 0l-24.445-24.447c-2.261-2.261-3.506-5.266-3.506-8.463s1.245-6.202 3.507-8.464l4.223-4.223c6.248-6.249 6.247-16.379-.001-22.627-6.25-6.248-16.38-6.248-22.628.001l-4.222 4.222c-8.305 8.305-12.879 19.346-12.879 31.091s4.574 22.786 12.879 31.09l.909.909-7.353 7.353c-6.249 6.249-6.249 16.379 0 22.627 3.124 3.125 7.218 4.687 11.313 4.687s8.189-1.563 11.313-4.686l7.353-7.353.91.91c8.572 8.571 19.831 12.857 31.091 12.857s22.52-4.286 31.091-12.857c11.853-11.852 15.923-29.092 10.622-44.996l-21.068-63.201c-1.442-4.329-.335-9.023 2.892-12.249 4.668-4.666 12.262-4.667 16.928 0l24.445 24.447c2.261 2.261 3.506 5.266 3.506 8.463s-1.245 6.202-3.507 8.464l-4.223 4.223c-6.248 6.249-6.247 16.379.001 22.627 6.25 6.248 16.38 6.248 22.628-.001l4.222-4.222c8.305-8.305 12.879-19.346 12.879-31.091s-4.573-22.786-12.878-31.09z" fill="#ff4646"/><g><g><path d="m144 64h-32v-32c0-8.837 7.163-16 16-16 8.837 0 16 7.163 16 16z" fill="#faa037"/></g><g><path d="m128 144c-8.837 0-16-7.163-16-16v-32h32v32c0 8.837-7.163 16-16 16z" fill="#faa037"/></g><g><path d="m112 64v32h-32c-8.837 0-16-7.163-16-16 0-8.837 7.163-16 16-16z" fill="#faa037"/></g><g><path d="m192 80c0 8.837-7.163 16-16 16h-32v-32h32c8.837 0 16 7.163 16 16z" fill="#faa037"/></g></g><g><g><path d="m448 336h-32v-32c0-8.837 7.163-16 16-16 8.837 0 16 7.163 16 16z" fill="#faa037"/></g><g><path d="m432 416c-8.837 0-16-7.163-16-16v-32h32v32c0 8.837-7.163 16-16 16z" fill="#faa037"/></g><g><path d="m416 336v32h-32c-8.837 0-16-7.163-16-16 0-8.837 7.163-16 16-16z" fill="#faa037"/></g><g><path d="m496 352c0 8.837-7.163 16-16 16h-32v-32h32c8.837 0 16 7.163 16 16z" fill="#faa037"/></g></g><g><g><path d="m96 416h-32v-32c0-8.837 7.163-16 16-16 8.837 0 16 7.163 16 16z" fill="#faa037"/></g><g><path d="m80 496c-8.837 0-16-7.163-16-16v-32h32v32c0 8.837-7.163 16-16 16z" fill="#faa037"/></g><g><path d="m64 416v32h-32c-8.837 0-16-7.163-16-16 0-8.837 7.163-16 16-16z" fill="#faa037"/></g><g><path d="m144 432c0 8.837-7.163 16-16 16h-32v-32h32c8.837 0 16 7.163 16 16z" fill="#faa037"/></g></g></g></svg>